<svg width="1220" height="48" viewBox="0 0 1220 48" fill="none" xmlns="http://www.w3.org/2000/svg">
<rect x="1086" width="134" height="48" rx="24" fill="#2374EE"/>
<path d="M1114.52 24.114C1114.52 23.162 1114.74 22.308 1115.18 21.552C1115.62 20.796 1116.23 20.208 1116.98 19.788C1117.75 19.3587 1118.58 19.144 1119.49 19.144C1120.52 19.144 1121.44 19.4007 1122.25 19.914C1123.06 20.418 1123.65 21.1367 1124.01 22.07H1122.09C1121.84 21.5567 1121.49 21.174 1121.04 20.922C1120.59 20.67 1120.08 20.544 1119.49 20.544C1118.84 20.544 1118.27 20.6887 1117.77 20.978C1117.26 21.2673 1116.87 21.6827 1116.58 22.224C1116.3 22.7653 1116.16 23.3953 1116.16 24.114C1116.16 24.8327 1116.3 25.4627 1116.58 26.004C1116.87 26.5453 1117.26 26.9653 1117.77 27.264C1118.27 27.5533 1118.84 27.698 1119.49 27.698C1120.08 27.698 1120.59 27.572 1121.04 27.32C1121.49 27.068 1121.84 26.6853 1122.09 26.172H1124.01C1123.65 27.1053 1123.06 27.824 1122.25 28.328C1121.44 28.832 1120.52 29.084 1119.49 29.084C1118.57 29.084 1117.74 28.874 1116.98 28.454C1116.23 28.0247 1115.62 27.432 1115.18 26.676C1114.74 25.92 1114.52 25.066 1114.52 24.114ZM1129.22 29.126C1128.5 29.126 1127.84 28.9627 1127.25 28.636C1126.66 28.3 1126.2 27.8333 1125.86 27.236C1125.53 26.6293 1125.36 25.9293 1125.36 25.136C1125.36 24.352 1125.53 23.6567 1125.88 23.05C1126.22 22.4433 1126.69 21.9767 1127.29 21.65C1127.89 21.3233 1128.56 21.16 1129.29 21.16C1130.03 21.16 1130.7 21.3233 1131.3 21.65C1131.89 21.9767 1132.36 22.4433 1132.71 23.05C1133.06 23.6567 1133.23 24.352 1133.23 25.136C1133.23 25.92 1133.05 26.6153 1132.7 27.222C1132.34 27.8287 1131.86 28.3 1131.24 28.636C1130.63 28.9627 1129.96 29.126 1129.22 29.126ZM1129.22 27.74C1129.63 27.74 1130.02 27.642 1130.37 27.446C1130.74 27.25 1131.03 26.956 1131.25 26.564C1131.48 26.172 1131.59 25.696 1131.59 25.136C1131.59 24.576 1131.48 24.1047 1131.27 23.722C1131.05 23.33 1130.77 23.036 1130.41 22.84C1130.06 22.644 1129.68 22.546 1129.27 22.546C1128.86 22.546 1128.47 22.644 1128.12 22.84C1127.77 23.036 1127.5 23.33 1127.29 23.722C1127.09 24.1047 1126.98 24.576 1126.98 25.136C1126.98 25.9667 1127.19 26.6107 1127.61 27.068C1128.04 27.516 1128.58 27.74 1129.22 27.74ZM1138.7 21.16C1139.3 21.16 1139.85 21.286 1140.32 21.538C1140.81 21.79 1141.19 22.1633 1141.46 22.658C1141.73 23.1527 1141.86 23.75 1141.86 24.45V29H1140.28V24.688C1140.28 23.9973 1140.11 23.47 1139.76 23.106C1139.42 22.7327 1138.95 22.546 1138.35 22.546C1137.75 22.546 1137.27 22.7327 1136.92 23.106C1136.57 23.47 1136.4 23.9973 1136.4 24.688V29H1134.81V21.286H1136.4V22.168C1136.66 21.8507 1136.99 21.6033 1137.4 21.426C1137.81 21.2487 1138.24 21.16 1138.7 21.16ZM1145.76 22.588V26.858C1145.76 27.1473 1145.82 27.3573 1145.96 27.488C1146.1 27.6093 1146.33 27.67 1146.66 27.67H1147.64V29H1146.38C1145.66 29 1145.11 28.832 1144.72 28.496C1144.34 28.16 1144.15 27.614 1144.15 26.858V22.588H1143.24V21.286H1144.15V19.368H1145.76V21.286H1147.64V22.588H1145.76ZM1148.57 25.108C1148.57 24.3333 1148.73 23.6473 1149.05 23.05C1149.38 22.4527 1149.82 21.9907 1150.37 21.664C1150.93 21.328 1151.54 21.16 1152.21 21.16C1152.82 21.16 1153.35 21.2813 1153.8 21.524C1154.25 21.7573 1154.62 22.0513 1154.89 22.406V21.286H1156.5V29H1154.89V27.852C1154.62 28.216 1154.25 28.5193 1153.78 28.762C1153.32 29.0047 1152.78 29.126 1152.19 29.126C1151.52 29.126 1150.92 28.958 1150.37 28.622C1149.82 28.2767 1149.38 27.8007 1149.05 27.194C1148.73 26.578 1148.57 25.8827 1148.57 25.108ZM1154.89 25.136C1154.89 24.604 1154.78 24.142 1154.55 23.75C1154.34 23.358 1154.05 23.0593 1153.7 22.854C1153.34 22.6487 1152.96 22.546 1152.55 22.546C1152.14 22.546 1151.76 22.6487 1151.4 22.854C1151.05 23.05 1150.76 23.344 1150.53 23.736C1150.32 24.1187 1150.21 24.576 1150.21 25.108C1150.21 25.64 1150.32 26.1067 1150.53 26.508C1150.76 26.9093 1151.05 27.2173 1151.4 27.432C1151.77 27.6373 1152.15 27.74 1152.55 27.74C1152.96 27.74 1153.34 27.6373 1153.7 27.432C1154.05 27.2267 1154.34 26.928 1154.55 26.536C1154.78 26.1347 1154.89 25.668 1154.89 25.136ZM1158.06 25.136C1158.06 24.3427 1158.22 23.6473 1158.54 23.05C1158.87 22.4433 1159.31 21.9767 1159.88 21.65C1160.45 21.3233 1161.11 21.16 1161.84 21.16C1162.78 21.16 1163.55 21.384 1164.15 21.832C1164.77 22.2707 1165.18 22.9007 1165.4 23.722H1163.68C1163.54 23.3393 1163.31 23.0407 1163 22.826C1162.7 22.6113 1162.31 22.504 1161.84 22.504C1161.19 22.504 1160.67 22.7373 1160.27 23.204C1159.89 23.6613 1159.7 24.3053 1159.7 25.136C1159.7 25.9667 1159.89 26.6153 1160.27 27.082C1160.67 27.5487 1161.19 27.782 1161.84 27.782C1162.77 27.782 1163.38 27.376 1163.68 26.564H1165.4C1165.17 27.348 1164.75 27.9733 1164.14 28.44C1163.52 28.8973 1162.76 29.126 1161.84 29.126C1161.11 29.126 1160.45 28.9627 1159.88 28.636C1159.31 28.3 1158.87 27.8333 1158.54 27.236C1158.22 26.6293 1158.06 25.9293 1158.06 25.136ZM1168.85 22.588V26.858C1168.85 27.1473 1168.92 27.3573 1169.05 27.488C1169.19 27.6093 1169.42 27.67 1169.75 27.67H1170.73V29H1169.47C1168.75 29 1168.2 28.832 1167.82 28.496C1167.43 28.16 1167.24 27.614 1167.24 26.858V22.588H1166.33V21.286H1167.24V19.368H1168.85V21.286H1170.73V22.588H1168.85ZM1177.42 19.27V25.472C1177.42 26.2093 1177.61 26.7647 1177.99 27.138C1178.38 27.5113 1178.92 27.698 1179.62 27.698C1180.32 27.698 1180.86 27.5113 1181.24 27.138C1181.63 26.7647 1181.83 26.2093 1181.83 25.472V19.27H1183.42V25.444C1183.42 26.2373 1183.25 26.9093 1182.91 27.46C1182.56 28.0107 1182.1 28.4213 1181.52 28.692C1180.94 28.9627 1180.3 29.098 1179.6 29.098C1178.9 29.098 1178.26 28.9627 1177.68 28.692C1177.11 28.4213 1176.66 28.0107 1176.33 27.46C1175.99 26.9093 1175.82 26.2373 1175.82 25.444V19.27H1177.42ZM1188.3 29.126C1187.69 29.126 1187.15 29.0187 1186.66 28.804C1186.19 28.58 1185.81 28.2813 1185.53 27.908C1185.25 27.5253 1185.1 27.1007 1185.08 26.634H1186.73C1186.76 26.9607 1186.92 27.236 1187.2 27.46C1187.48 27.6747 1187.84 27.782 1188.27 27.782C1188.72 27.782 1189.07 27.698 1189.31 27.53C1189.56 27.3527 1189.69 27.1287 1189.69 26.858C1189.69 26.5687 1189.55 26.354 1189.27 26.214C1189 26.074 1188.56 25.92 1187.97 25.752C1187.39 25.5933 1186.92 25.4393 1186.55 25.29C1186.19 25.1407 1185.87 24.912 1185.6 24.604C1185.34 24.296 1185.21 23.89 1185.21 23.386C1185.21 22.9753 1185.33 22.602 1185.57 22.266C1185.81 21.9207 1186.16 21.65 1186.61 21.454C1187.06 21.258 1187.59 21.16 1188.18 21.16C1189.05 21.16 1189.76 21.384 1190.29 21.832C1190.83 22.2707 1191.12 22.8727 1191.16 23.638H1189.56C1189.53 23.2927 1189.39 23.0173 1189.14 22.812C1188.89 22.6067 1188.55 22.504 1188.12 22.504C1187.7 22.504 1187.38 22.5833 1187.15 22.742C1186.93 22.9007 1186.82 23.1107 1186.82 23.372C1186.82 23.5773 1186.89 23.75 1187.04 23.89C1187.19 24.03 1187.37 24.142 1187.59 24.226C1187.8 24.3007 1188.12 24.3987 1188.54 24.52C1189.1 24.6693 1189.56 24.8233 1189.91 24.982C1190.28 25.1313 1190.59 25.3553 1190.85 25.654C1191.11 25.9527 1191.25 26.3493 1191.26 26.844C1191.26 27.2827 1191.13 27.6747 1190.89 28.02C1190.65 28.3653 1190.3 28.636 1189.86 28.832C1189.42 29.028 1188.9 29.126 1188.3 29.126Z" fill="white"/>
<path d="M452.82 19.27V29H451.224V24.744H446.646V29H445.05V19.27H446.646V23.442H451.224V19.27H452.82ZM458.267 29.126C457.539 29.126 456.881 28.9627 456.293 28.636C455.705 28.3 455.243 27.8333 454.907 27.236C454.571 26.6293 454.403 25.9293 454.403 25.136C454.403 24.352 454.576 23.6567 454.921 23.05C455.266 22.4433 455.738 21.9767 456.335 21.65C456.932 21.3233 457.6 21.16 458.337 21.16C459.074 21.16 459.742 21.3233 460.339 21.65C460.936 21.9767 461.408 22.4433 461.753 23.05C462.098 23.6567 462.271 24.352 462.271 25.136C462.271 25.92 462.094 26.6153 461.739 27.222C461.384 27.8287 460.899 28.3 460.283 28.636C459.676 28.9627 459.004 29.126 458.267 29.126ZM458.267 27.74C458.678 27.74 459.06 27.642 459.415 27.446C459.779 27.25 460.073 26.956 460.297 26.564C460.521 26.172 460.633 25.696 460.633 25.136C460.633 24.576 460.526 24.1047 460.311 23.722C460.096 23.33 459.812 23.036 459.457 22.84C459.102 22.644 458.72 22.546 458.309 22.546C457.898 22.546 457.516 22.644 457.161 22.84C456.816 23.036 456.54 23.33 456.335 23.722C456.13 24.1047 456.027 24.576 456.027 25.136C456.027 25.9667 456.237 26.6107 456.657 27.068C457.086 27.516 457.623 27.74 458.267 27.74ZM473.187 21.16C473.793 21.16 474.335 21.286 474.811 21.538C475.296 21.79 475.674 22.1633 475.945 22.658C476.225 23.1527 476.365 23.75 476.365 24.45V29H474.783V24.688C474.783 23.9973 474.61 23.47 474.265 23.106C473.919 22.7327 473.448 22.546 472.851 22.546C472.253 22.546 471.777 22.7327 471.423 23.106C471.077 23.47 470.905 23.9973 470.905 24.688V29H469.323V24.688C469.323 23.9973 469.15 23.47 468.805 23.106C468.459 22.7327 467.988 22.546 467.391 22.546C466.793 22.546 466.317 22.7327 465.963 23.106C465.617 23.47 465.445 23.9973 465.445 24.688V29H463.849V21.286H465.445V22.168C465.706 21.8507 466.037 21.6033 466.439 21.426C466.84 21.2487 467.269 21.16 467.727 21.16C468.343 21.16 468.893 21.2907 469.379 21.552C469.864 21.8133 470.237 22.1913 470.499 22.686C470.732 22.2193 471.096 21.8507 471.591 21.58C472.085 21.3 472.617 21.16 473.187 21.16ZM485.466 24.954C485.466 25.2433 485.447 25.5047 485.41 25.738H479.516C479.562 26.354 479.791 26.8487 480.202 27.222C480.612 27.5953 481.116 27.782 481.714 27.782C482.572 27.782 483.179 27.4227 483.534 26.704H485.256C485.022 27.4133 484.598 27.9967 483.982 28.454C483.375 28.902 482.619 29.126 481.714 29.126C480.976 29.126 480.314 28.9627 479.726 28.636C479.147 28.3 478.69 27.8333 478.354 27.236C478.027 26.6293 477.864 25.9293 477.864 25.136C477.864 24.3427 478.022 23.6473 478.34 23.05C478.666 22.4433 479.119 21.9767 479.698 21.65C480.286 21.3233 480.958 21.16 481.714 21.16C482.442 21.16 483.09 21.3187 483.66 21.636C484.229 21.9533 484.672 22.4013 484.99 22.98C485.307 23.5493 485.466 24.2073 485.466 24.954ZM483.8 24.45C483.79 23.862 483.58 23.3907 483.17 23.036C482.759 22.6813 482.25 22.504 481.644 22.504C481.093 22.504 480.622 22.6813 480.23 23.036C479.838 23.3813 479.604 23.8527 479.53 24.45H483.8Z" fill="#063852"/>
<path d="M532.916 27.012H528.842L528.142 29H526.476L529.962 19.256H531.81L535.296 29H533.616L532.916 27.012ZM532.468 25.71L530.886 21.188L529.29 25.71H532.468ZM538.408 22.434C538.678 22.0607 539.047 21.7573 539.514 21.524C539.99 21.2813 540.517 21.16 541.096 21.16C541.777 21.16 542.393 21.3233 542.944 21.65C543.494 21.9767 543.928 22.4433 544.246 23.05C544.563 23.6473 544.722 24.3333 544.722 25.108C544.722 25.8827 544.563 26.578 544.246 27.194C543.928 27.8007 543.49 28.2767 542.93 28.622C542.379 28.958 541.768 29.126 541.096 29.126C540.498 29.126 539.966 29.0093 539.5 28.776C539.042 28.5427 538.678 28.244 538.408 27.88V29H536.812V18.64H538.408V22.434ZM543.098 25.108C543.098 24.576 542.986 24.1187 542.762 23.736C542.547 23.344 542.258 23.05 541.894 22.854C541.539 22.6487 541.156 22.546 540.746 22.546C540.344 22.546 539.962 22.6487 539.598 22.854C539.243 23.0593 538.954 23.358 538.73 23.75C538.515 24.142 538.408 24.604 538.408 25.136C538.408 25.668 538.515 26.1347 538.73 26.536C538.954 26.928 539.243 27.2267 539.598 27.432C539.962 27.6373 540.344 27.74 540.746 27.74C541.156 27.74 541.539 27.6373 541.894 27.432C542.258 27.2173 542.547 26.9093 542.762 26.508C542.986 26.1067 543.098 25.64 543.098 25.108ZM549.646 29.126C548.918 29.126 548.26 28.9627 547.672 28.636C547.084 28.3 546.622 27.8333 546.286 27.236C545.95 26.6293 545.782 25.9293 545.782 25.136C545.782 24.352 545.955 23.6567 546.3 23.05C546.645 22.4433 547.117 21.9767 547.714 21.65C548.311 21.3233 548.979 21.16 549.716 21.16C550.453 21.16 551.121 21.3233 551.718 21.65C552.315 21.9767 552.787 22.4433 553.132 23.05C553.477 23.6567 553.65 24.352 553.65 25.136C553.65 25.92 553.473 26.6153 553.118 27.222C552.763 27.8287 552.278 28.3 551.662 28.636C551.055 28.9627 550.383 29.126 549.646 29.126ZM549.646 27.74C550.057 27.74 550.439 27.642 550.794 27.446C551.158 27.25 551.452 26.956 551.676 26.564C551.9 26.172 552.012 25.696 552.012 25.136C552.012 24.576 551.905 24.1047 551.69 23.722C551.475 23.33 551.191 23.036 550.836 22.84C550.481 22.644 550.099 22.546 549.688 22.546C549.277 22.546 548.895 22.644 548.54 22.84C548.195 23.036 547.919 23.33 547.714 23.722C547.509 24.1047 547.406 24.576 547.406 25.136C547.406 25.9667 547.616 26.6107 548.036 27.068C548.465 27.516 549.002 27.74 549.646 27.74ZM562.214 21.286V29H560.618V28.09C560.366 28.4073 560.034 28.6593 559.624 28.846C559.222 29.0233 558.793 29.112 558.336 29.112C557.729 29.112 557.183 28.986 556.698 28.734C556.222 28.482 555.844 28.1087 555.564 27.614C555.293 27.1193 555.158 26.522 555.158 25.822V21.286H556.74V25.584C556.74 26.2747 556.912 26.8067 557.258 27.18C557.603 27.544 558.074 27.726 558.672 27.726C559.269 27.726 559.74 27.544 560.086 27.18C560.44 26.8067 560.618 26.2747 560.618 25.584V21.286H562.214ZM566.182 22.588V26.858C566.182 27.1473 566.247 27.3573 566.378 27.488C566.518 27.6093 566.751 27.67 567.078 27.67H568.058V29H566.798C566.079 29 565.528 28.832 565.146 28.496C564.763 28.16 564.572 27.614 564.572 26.858V22.588H563.662V21.286H564.572V19.368H566.182V21.286H568.058V22.588H566.182Z" fill="#9EA3AE"/>
<path d="M615.776 19.27V20.572H611.646V23.442H614.866V24.744H611.646V29H610.05V19.27H615.776ZM624.325 24.954C624.325 25.2433 624.306 25.5047 624.269 25.738H618.375C618.422 26.354 618.65 26.8487 619.061 27.222C619.472 27.5953 619.976 27.782 620.573 27.782C621.432 27.782 622.038 27.4227 622.393 26.704H624.115C623.882 27.4133 623.457 27.9967 622.841 28.454C622.234 28.902 621.478 29.126 620.573 29.126C619.836 29.126 619.173 28.9627 618.585 28.636C618.006 28.3 617.549 27.8333 617.213 27.236C616.886 26.6293 616.723 25.9293 616.723 25.136C616.723 24.3427 616.882 23.6473 617.199 23.05C617.526 22.4433 617.978 21.9767 618.557 21.65C619.145 21.3233 619.817 21.16 620.573 21.16C621.301 21.16 621.95 21.3187 622.519 21.636C623.088 21.9533 623.532 22.4013 623.849 22.98C624.166 23.5493 624.325 24.2073 624.325 24.954ZM622.659 24.45C622.65 23.862 622.44 23.3907 622.029 23.036C621.618 22.6813 621.11 22.504 620.503 22.504C619.952 22.504 619.481 22.6813 619.089 23.036C618.697 23.3813 618.464 23.8527 618.389 24.45H622.659ZM625.364 25.108C625.364 24.3333 625.522 23.6473 625.84 23.05C626.166 22.4527 626.605 21.9907 627.156 21.664C627.716 21.328 628.332 21.16 629.004 21.16C629.61 21.16 630.138 21.2813 630.586 21.524C631.043 21.7573 631.407 22.0513 631.678 22.406V21.286H633.288V29H631.678V27.852C631.407 28.216 631.038 28.5193 630.572 28.762C630.105 29.0047 629.573 29.126 628.976 29.126C628.313 29.126 627.706 28.958 627.156 28.622C626.605 28.2767 626.166 27.8007 625.84 27.194C625.522 26.578 625.364 25.8827 625.364 25.108ZM631.678 25.136C631.678 24.604 631.566 24.142 631.342 23.75C631.127 23.358 630.842 23.0593 630.488 22.854C630.133 22.6487 629.75 22.546 629.34 22.546C628.929 22.546 628.546 22.6487 628.192 22.854C627.837 23.05 627.548 23.344 627.324 23.736C627.109 24.1187 627.002 24.576 627.002 25.108C627.002 25.64 627.109 26.1067 627.324 26.508C627.548 26.9093 627.837 27.2173 628.192 27.432C628.556 27.6373 628.938 27.74 629.34 27.74C629.75 27.74 630.133 27.6373 630.488 27.432C630.842 27.2267 631.127 26.928 631.342 26.536C631.566 26.1347 631.678 25.668 631.678 25.136ZM637.246 22.588V26.858C637.246 27.1473 637.311 27.3573 637.442 27.488C637.582 27.6093 637.815 27.67 638.142 27.67H639.122V29H637.862C637.143 29 636.593 28.832 636.21 28.496C635.827 28.16 635.636 27.614 635.636 26.858V22.588H634.726V21.286H635.636V19.368H637.246V21.286H639.122V22.588H637.246ZM647.579 21.286V29H645.983V28.09C645.731 28.4073 645.4 28.6593 644.989 28.846C644.588 29.0233 644.158 29.112 643.701 29.112C643.094 29.112 642.548 28.986 642.063 28.734C641.587 28.482 641.209 28.1087 640.929 27.614C640.658 27.1193 640.523 26.522 640.523 25.822V21.286H642.105V25.584C642.105 26.2747 642.278 26.8067 642.623 27.18C642.968 27.544 643.44 27.726 644.037 27.726C644.634 27.726 645.106 27.544 645.451 27.18C645.806 26.8067 645.983 26.2747 645.983 25.584V21.286H647.579ZM651.281 22.406C651.514 22.014 651.822 21.7107 652.205 21.496C652.597 21.272 653.059 21.16 653.591 21.16V22.812H653.185C652.559 22.812 652.083 22.9707 651.757 23.288C651.439 23.6053 651.281 24.156 651.281 24.94V29H649.685V21.286H651.281V22.406ZM662.128 24.954C662.128 25.2433 662.109 25.5047 662.072 25.738H656.178C656.224 26.354 656.453 26.8487 656.864 27.222C657.274 27.5953 657.778 27.782 658.376 27.782C659.234 27.782 659.841 27.4227 660.196 26.704H661.918C661.684 27.4133 661.26 27.9967 660.644 28.454C660.037 28.902 659.281 29.126 658.376 29.126C657.638 29.126 656.976 28.9627 656.388 28.636C655.809 28.3 655.352 27.8333 655.016 27.236C654.689 26.6293 654.526 25.9293 654.526 25.136C654.526 24.3427 654.684 23.6473 655.002 23.05C655.328 22.4433 655.781 21.9767 656.36 21.65C656.948 21.3233 657.62 21.16 658.376 21.16C659.104 21.16 659.752 21.3187 660.322 21.636C660.891 21.9533 661.334 22.4013 661.652 22.98C661.969 23.5493 662.128 24.2073 662.128 24.954ZM660.462 24.45C660.452 23.862 660.242 23.3907 659.832 23.036C659.421 22.6813 658.912 22.504 658.306 22.504C657.755 22.504 657.284 22.6813 656.892 23.036C656.5 23.3813 656.266 23.8527 656.192 24.45H660.462ZM666.498 29.126C665.892 29.126 665.346 29.0187 664.86 28.804C664.384 28.58 664.006 28.2813 663.726 27.908C663.446 27.5253 663.297 27.1007 663.278 26.634H664.93C664.958 26.9607 665.112 27.236 665.392 27.46C665.682 27.6747 666.041 27.782 666.47 27.782C666.918 27.782 667.264 27.698 667.506 27.53C667.758 27.3527 667.884 27.1287 667.884 26.858C667.884 26.5687 667.744 26.354 667.464 26.214C667.194 26.074 666.76 25.92 666.162 25.752C665.584 25.5933 665.112 25.4393 664.748 25.29C664.384 25.1407 664.067 24.912 663.796 24.604C663.535 24.296 663.404 23.89 663.404 23.386C663.404 22.9753 663.526 22.602 663.768 22.266C664.011 21.9207 664.356 21.65 664.804 21.454C665.262 21.258 665.784 21.16 666.372 21.16C667.25 21.16 667.954 21.384 668.486 21.832C669.028 22.2707 669.317 22.8727 669.354 23.638H667.758C667.73 23.2927 667.59 23.0173 667.338 22.812C667.086 22.6067 666.746 22.504 666.316 22.504C665.896 22.504 665.574 22.5833 665.35 22.742C665.126 22.9007 665.014 23.1107 665.014 23.372C665.014 23.5773 665.089 23.75 665.238 23.89C665.388 24.03 665.57 24.142 665.784 24.226C665.999 24.3007 666.316 24.3987 666.736 24.52C667.296 24.6693 667.754 24.8233 668.108 24.982C668.472 25.1313 668.785 25.3553 669.046 25.654C669.308 25.9527 669.443 26.3493 669.452 26.844C669.452 27.2827 669.331 27.6747 669.088 28.02C668.846 28.3653 668.5 28.636 668.052 28.832C667.614 29.028 667.096 29.126 666.498 29.126Z" fill="#9EA3AE"/>
<path d="M718.854 22.168C718.854 22.6627 718.737 23.1293 718.504 23.568C718.271 24.0067 717.897 24.366 717.384 24.646C716.871 24.9167 716.213 25.052 715.41 25.052H713.646V29H712.05V19.27H715.41C716.157 19.27 716.787 19.4007 717.3 19.662C717.823 19.914 718.21 20.2593 718.462 20.698C718.723 21.1367 718.854 21.6267 718.854 22.168ZM715.41 23.75C716.017 23.75 716.469 23.6147 716.768 23.344C717.067 23.064 717.216 22.672 717.216 22.168C717.216 21.104 716.614 20.572 715.41 20.572H713.646V23.75H715.41ZM721.972 22.406C722.206 22.014 722.514 21.7107 722.896 21.496C723.288 21.272 723.75 21.16 724.282 21.16V22.812H723.876C723.251 22.812 722.775 22.9707 722.448 23.288C722.131 23.6053 721.972 24.156 721.972 24.94V29H720.376V21.286H721.972V22.406ZM726.561 20.264C726.272 20.264 726.029 20.166 725.833 19.97C725.637 19.774 725.539 19.5313 725.539 19.242C725.539 18.9527 725.637 18.71 725.833 18.514C726.029 18.318 726.272 18.22 726.561 18.22C726.841 18.22 727.079 18.318 727.275 18.514C727.471 18.71 727.569 18.9527 727.569 19.242C727.569 19.5313 727.471 19.774 727.275 19.97C727.079 20.166 726.841 20.264 726.561 20.264ZM727.345 21.286V29H725.749V21.286H727.345ZM728.909 25.136C728.909 24.3427 729.067 23.6473 729.385 23.05C729.711 22.4433 730.159 21.9767 730.729 21.65C731.298 21.3233 731.951 21.16 732.689 21.16C733.622 21.16 734.392 21.384 734.999 21.832C735.615 22.2707 736.03 22.9007 736.245 23.722H734.523C734.383 23.3393 734.159 23.0407 733.851 22.826C733.543 22.6113 733.155 22.504 732.689 22.504C732.035 22.504 731.513 22.7373 731.121 23.204C730.738 23.6613 730.547 24.3053 730.547 25.136C730.547 25.9667 730.738 26.6153 731.121 27.082C731.513 27.5487 732.035 27.782 732.689 27.782C733.613 27.782 734.224 27.376 734.523 26.564H736.245C736.021 27.348 735.601 27.9733 734.985 28.44C734.369 28.8973 733.603 29.126 732.689 29.126C731.951 29.126 731.298 28.9627 730.729 28.636C730.159 28.3 729.711 27.8333 729.385 27.236C729.067 26.6293 728.909 25.9293 728.909 25.136ZM738.647 20.264C738.358 20.264 738.115 20.166 737.919 19.97C737.723 19.774 737.625 19.5313 737.625 19.242C737.625 18.9527 737.723 18.71 737.919 18.514C738.115 18.318 738.358 18.22 738.647 18.22C738.927 18.22 739.165 18.318 739.361 18.514C739.557 18.71 739.655 18.9527 739.655 19.242C739.655 19.5313 739.557 19.774 739.361 19.97C739.165 20.166 738.927 20.264 738.647 20.264ZM739.431 21.286V29H737.835V21.286H739.431ZM745.419 21.16C746.025 21.16 746.567 21.286 747.043 21.538C747.528 21.79 747.906 22.1633 748.177 22.658C748.447 23.1527 748.583 23.75 748.583 24.45V29H747.001V24.688C747.001 23.9973 746.828 23.47 746.483 23.106C746.137 22.7327 745.666 22.546 745.069 22.546C744.471 22.546 743.995 22.7327 743.641 23.106C743.295 23.47 743.123 23.9973 743.123 24.688V29H741.527V21.286H743.123V22.168C743.384 21.8507 743.715 21.6033 744.117 21.426C744.527 21.2487 744.961 21.16 745.419 21.16ZM753.726 21.16C754.324 21.16 754.851 21.2813 755.308 21.524C755.775 21.7573 756.139 22.0513 756.4 22.406V21.286H758.01V29.126C758.01 29.8353 757.861 30.4653 757.562 31.016C757.264 31.576 756.83 32.0147 756.26 32.332C755.7 32.6493 755.028 32.808 754.244 32.808C753.199 32.808 752.331 32.5607 751.64 32.066C750.95 31.5807 750.558 30.918 750.464 30.078H752.046C752.168 30.4793 752.424 30.8013 752.816 31.044C753.218 31.296 753.694 31.422 754.244 31.422C754.888 31.422 755.406 31.226 755.798 30.834C756.2 30.442 756.4 29.8727 756.4 29.126V27.838C756.13 28.202 755.761 28.51 755.294 28.762C754.837 29.0047 754.314 29.126 753.726 29.126C753.054 29.126 752.438 28.958 751.878 28.622C751.328 28.2767 750.889 27.8007 750.562 27.194C750.245 26.578 750.086 25.8827 750.086 25.108C750.086 24.3333 750.245 23.6473 750.562 23.05C750.889 22.4527 751.328 21.9907 751.878 21.664C752.438 21.328 753.054 21.16 753.726 21.16ZM756.4 25.136C756.4 24.604 756.288 24.142 756.064 23.75C755.85 23.358 755.565 23.0593 755.21 22.854C754.856 22.6487 754.473 22.546 754.062 22.546C753.652 22.546 753.269 22.6487 752.914 22.854C752.56 23.05 752.27 23.344 752.046 23.736C751.832 24.1187 751.724 24.576 751.724 25.108C751.724 25.64 751.832 26.1067 752.046 26.508C752.27 26.9093 752.56 27.2173 752.914 27.432C753.278 27.6373 753.661 27.74 754.062 27.74C754.473 27.74 754.856 27.6373 755.21 27.432C755.565 27.2267 755.85 26.928 756.064 26.536C756.288 26.1347 756.4 25.668 756.4 25.136Z" fill="#9EA3AE"/>
<path d="M807.336 19.27V20.572H804.746V29H803.15V20.572H800.546V19.27H807.336ZM816.022 24.954C816.022 25.2433 816.004 25.5047 815.966 25.738H810.072C810.119 26.354 810.348 26.8487 810.758 27.222C811.169 27.5953 811.673 27.782 812.27 27.782C813.129 27.782 813.736 27.4227 814.09 26.704H815.812C815.579 27.4133 815.154 27.9967 814.538 28.454C813.932 28.902 813.176 29.126 812.27 29.126C811.533 29.126 810.87 28.9627 810.282 28.636C809.704 28.3 809.246 27.8333 808.91 27.236C808.584 26.6293 808.42 25.9293 808.42 25.136C808.42 24.3427 808.579 23.6473 808.896 23.05C809.223 22.4433 809.676 21.9767 810.254 21.65C810.842 21.3233 811.514 21.16 812.27 21.16C812.998 21.16 813.647 21.3187 814.216 21.636C814.786 21.9533 815.229 22.4013 815.546 22.98C815.864 23.5493 816.022 24.2073 816.022 24.954ZM814.356 24.45C814.347 23.862 814.137 23.3907 813.726 23.036C813.316 22.6813 812.807 22.504 812.2 22.504C811.65 22.504 811.178 22.6813 810.786 23.036C810.394 23.3813 810.161 23.8527 810.086 24.45H814.356ZM820.393 29.126C819.786 29.126 819.24 29.0187 818.755 28.804C818.279 28.58 817.901 28.2813 817.621 27.908C817.341 27.5253 817.192 27.1007 817.173 26.634H818.825C818.853 26.9607 819.007 27.236 819.287 27.46C819.576 27.6747 819.936 27.782 820.365 27.782C820.813 27.782 821.158 27.698 821.401 27.53C821.653 27.3527 821.779 27.1287 821.779 26.858C821.779 26.5687 821.639 26.354 821.359 26.214C821.088 26.074 820.654 25.92 820.057 25.752C819.478 25.5933 819.007 25.4393 818.643 25.29C818.279 25.1407 817.962 24.912 817.691 24.604C817.43 24.296 817.299 23.89 817.299 23.386C817.299 22.9753 817.42 22.602 817.663 22.266C817.906 21.9207 818.251 21.65 818.699 21.454C819.156 21.258 819.679 21.16 820.267 21.16C821.144 21.16 821.849 21.384 822.381 21.832C822.922 22.2707 823.212 22.8727 823.249 23.638H821.653C821.625 23.2927 821.485 23.0173 821.233 22.812C820.981 22.6067 820.64 22.504 820.211 22.504C819.791 22.504 819.469 22.5833 819.245 22.742C819.021 22.9007 818.909 23.1107 818.909 23.372C818.909 23.5773 818.984 23.75 819.133 23.89C819.282 24.03 819.464 24.142 819.679 24.226C819.894 24.3007 820.211 24.3987 820.631 24.52C821.191 24.6693 821.648 24.8233 822.003 24.982C822.367 25.1313 822.68 25.3553 822.941 25.654C823.202 25.9527 823.338 26.3493 823.347 26.844C823.347 27.2827 823.226 27.6747 822.983 28.02C822.74 28.3653 822.395 28.636 821.947 28.832C821.508 29.028 820.99 29.126 820.393 29.126ZM826.933 22.588V26.858C826.933 27.1473 826.999 27.3573 827.129 27.488C827.269 27.6093 827.503 27.67 827.829 27.67H828.809V29H827.549C826.831 29 826.28 28.832 825.897 28.496C825.515 28.16 825.323 27.614 825.323 26.858V22.588H824.413V21.286H825.323V19.368H826.933V21.286H828.809V22.588H826.933ZM831.092 20.264C830.803 20.264 830.56 20.166 830.364 19.97C830.168 19.774 830.07 19.5313 830.07 19.242C830.07 18.9527 830.168 18.71 830.364 18.514C830.56 18.318 830.803 18.22 831.092 18.22C831.372 18.22 831.61 18.318 831.806 18.514C832.002 18.71 832.1 18.9527 832.1 19.242C832.1 19.5313 832.002 19.774 831.806 19.97C831.61 20.166 831.372 20.264 831.092 20.264ZM831.876 21.286V29H830.28V21.286H831.876ZM843.31 21.16C843.917 21.16 844.458 21.286 844.934 21.538C845.419 21.79 845.797 22.1633 846.068 22.658C846.348 23.1527 846.488 23.75 846.488 24.45V29H844.906V24.688C844.906 23.9973 844.733 23.47 844.388 23.106C844.043 22.7327 843.571 22.546 842.974 22.546C842.377 22.546 841.901 22.7327 841.546 23.106C841.201 23.47 841.028 23.9973 841.028 24.688V29H839.446V24.688C839.446 23.9973 839.273 23.47 838.928 23.106C838.583 22.7327 838.111 22.546 837.514 22.546C836.917 22.546 836.441 22.7327 836.086 23.106C835.741 23.47 835.568 23.9973 835.568 24.688V29H833.972V21.286H835.568V22.168C835.829 21.8507 836.161 21.6033 836.562 21.426C836.963 21.2487 837.393 21.16 837.85 21.16C838.466 21.16 839.017 21.2907 839.502 21.552C839.987 21.8133 840.361 22.1913 840.622 22.686C840.855 22.2193 841.219 21.8507 841.714 21.58C842.209 21.3 842.741 21.16 843.31 21.16ZM851.865 29.126C851.137 29.126 850.479 28.9627 849.891 28.636C849.303 28.3 848.841 27.8333 848.505 27.236C848.169 26.6293 848.001 25.9293 848.001 25.136C848.001 24.352 848.173 23.6567 848.519 23.05C848.864 22.4433 849.335 21.9767 849.933 21.65C850.53 21.3233 851.197 21.16 851.935 21.16C852.672 21.16 853.339 21.3233 853.937 21.65C854.534 21.9767 855.005 22.4433 855.351 23.05C855.696 23.6567 855.869 24.352 855.869 25.136C855.869 25.92 855.691 26.6153 855.337 27.222C854.982 27.8287 854.497 28.3 853.881 28.636C853.274 28.9627 852.602 29.126 851.865 29.126ZM851.865 27.74C852.275 27.74 852.658 27.642 853.013 27.446C853.377 27.25 853.671 26.956 853.895 26.564C854.119 26.172 854.231 25.696 854.231 25.136C854.231 24.576 854.123 24.1047 853.909 23.722C853.694 23.33 853.409 23.036 853.055 22.84C852.7 22.644 852.317 22.546 851.907 22.546C851.496 22.546 851.113 22.644 850.759 22.84C850.413 23.036 850.138 23.33 849.933 23.722C849.727 24.1047 849.625 24.576 849.625 25.136C849.625 25.9667 849.835 26.6107 850.255 27.068C850.684 27.516 851.221 27.74 851.865 27.74ZM861.338 21.16C861.945 21.16 862.486 21.286 862.962 21.538C863.448 21.79 863.826 22.1633 864.096 22.658C864.367 23.1527 864.502 23.75 864.502 24.45V29H862.92V24.688C862.92 23.9973 862.748 23.47 862.402 23.106C862.057 22.7327 861.586 22.546 860.988 22.546C860.391 22.546 859.915 22.7327 859.56 23.106C859.215 23.47 859.042 23.9973 859.042 24.688V29H857.446V21.286H859.042V22.168C859.304 21.8507 859.635 21.6033 860.036 21.426C860.447 21.2487 860.881 21.16 861.338 21.16ZM867.35 20.264C867.061 20.264 866.818 20.166 866.622 19.97C866.426 19.774 866.328 19.5313 866.328 19.242C866.328 18.9527 866.426 18.71 866.622 18.514C866.818 18.318 867.061 18.22 867.35 18.22C867.63 18.22 867.868 18.318 868.064 18.514C868.26 18.71 868.358 18.9527 868.358 19.242C868.358 19.5313 868.26 19.774 868.064 19.97C867.868 20.166 867.63 20.264 867.35 20.264ZM868.134 21.286V29H866.538V21.286H868.134ZM869.698 25.108C869.698 24.3333 869.856 23.6473 870.174 23.05C870.5 22.4527 870.939 21.9907 871.49 21.664C872.05 21.328 872.666 21.16 873.338 21.16C873.944 21.16 874.472 21.2813 874.92 21.524C875.377 21.7573 875.741 22.0513 876.012 22.406V21.286H877.622V29H876.012V27.852C875.741 28.216 875.372 28.5193 874.906 28.762C874.439 29.0047 873.907 29.126 873.31 29.126C872.647 29.126 872.04 28.958 871.49 28.622C870.939 28.2767 870.5 27.8007 870.174 27.194C869.856 26.578 869.698 25.8827 869.698 25.108ZM876.012 25.136C876.012 24.604 875.9 24.142 875.676 23.75C875.461 23.358 875.176 23.0593 874.822 22.854C874.467 22.6487 874.084 22.546 873.674 22.546C873.263 22.546 872.88 22.6487 872.526 22.854C872.171 23.05 871.882 23.344 871.658 23.736C871.443 24.1187 871.336 24.576 871.336 25.108C871.336 25.64 871.443 26.1067 871.658 26.508C871.882 26.9093 872.171 27.2173 872.526 27.432C872.89 27.6373 873.272 27.74 873.674 27.74C874.084 27.74 874.467 27.6373 874.822 27.432C875.176 27.2267 875.461 26.928 875.676 26.536C875.9 26.1347 876.012 25.668 876.012 25.136ZM881.314 18.64V29H879.718V18.64H881.314Z" fill="#9EA3AE"/>
<path d="M56.1322 19.2855V22.5292H61.3702V25.3564H56.1322V28.7973H62.0277V31.7999H52.3844V16.3048H62.0277V19.2855H56.1322ZM68.5832 19.417C69.5184 19.417 70.322 19.6288 70.9941 20.0526C71.6662 20.4763 72.1557 21.0534 72.4625 21.784V15.5816H76.2103V31.7999H72.4625V29.5863C72.1557 30.3169 71.6662 30.894 70.9941 31.3178C70.322 31.7415 69.5184 31.9533 68.5832 31.9533C67.5751 31.9533 66.6692 31.705 65.8656 31.2082C65.0766 30.6968 64.4483 29.9662 63.9807 29.0165C63.5278 28.0668 63.3013 26.9563 63.3013 25.6852C63.3013 24.3994 63.5278 23.2889 63.9807 22.3538C64.4483 21.4041 65.0766 20.6809 65.8656 20.1841C66.6692 19.6727 67.5751 19.417 68.5832 19.417ZM69.7887 22.7045C68.985 22.7045 68.3348 22.9675 67.8381 23.4935C67.3559 24.0195 67.1148 24.7501 67.1148 25.6852C67.1148 26.6203 67.3559 27.3508 67.8381 27.8768C68.3348 28.4028 68.985 28.6658 69.7887 28.6658C70.5777 28.6658 71.2205 28.3955 71.7173 27.8549C72.2287 27.3143 72.4844 26.5911 72.4844 25.6852C72.4844 24.7647 72.2287 24.0414 71.7173 23.5154C71.2205 22.9748 70.5777 22.7045 69.7887 22.7045ZM90.7352 19.5704V31.7999H86.9655V29.5863C86.6149 30.3023 86.0889 30.8721 85.3875 31.2958C84.7008 31.7196 83.8972 31.9314 82.9767 31.9314C81.574 31.9314 80.4563 31.4639 79.6234 30.5288C78.8052 29.5936 78.3961 28.3079 78.3961 26.6714V19.5704H82.1219V26.2112C82.1219 27.044 82.3338 27.6942 82.7575 28.1618C83.1959 28.6147 83.7803 28.8412 84.5109 28.8412C85.2706 28.8412 85.8697 28.6001 86.308 28.1179C86.7464 27.6358 86.9655 26.949 86.9655 26.0577V19.5704H90.7352ZM98.622 19.417C100.2 19.417 101.522 19.8553 102.589 20.732C103.656 21.594 104.328 22.7849 104.605 24.3044H100.638C100.521 23.7784 100.28 23.3693 99.9151 23.0771C99.5498 22.7849 99.0895 22.6387 98.5343 22.6387C97.8768 22.6387 97.3362 22.9017 96.9125 23.4277C96.4887 23.9391 96.2769 24.6916 96.2769 25.6852C96.2769 26.6787 96.4887 27.4385 96.9125 27.9645C97.3362 28.4759 97.8768 28.7316 98.5343 28.7316C99.0895 28.7316 99.5498 28.5855 99.9151 28.2933C100.28 28.001 100.521 27.5919 100.638 27.0659H104.605C104.328 28.5855 103.656 29.7836 102.589 30.6603C101.522 31.5223 100.2 31.9533 98.622 31.9533C97.4239 31.9533 96.3572 31.705 95.4221 31.2082C94.5016 30.6968 93.7784 29.9662 93.2524 29.0165C92.7264 28.0668 92.4634 26.9563 92.4634 25.6852C92.4634 24.3994 92.7191 23.2889 93.2305 22.3538C93.7565 21.4041 94.487 20.6809 95.4221 20.1841C96.3572 19.6727 97.4239 19.417 98.622 19.417ZM110.09 15.5816V31.7999H106.342V15.5816H110.09ZM117.105 19.417C118.04 19.417 118.843 19.6288 119.516 20.0526C120.188 20.4763 120.685 21.0534 121.006 21.784V19.5704H124.732V31.7999H121.006V29.5863C120.685 30.3169 120.188 30.894 119.516 31.3178C118.843 31.7415 118.04 31.9533 117.105 31.9533C116.097 31.9533 115.191 31.705 114.387 31.2082C113.598 30.6968 112.97 29.9662 112.502 29.0165C112.049 28.0668 111.823 26.9563 111.823 25.6852C111.823 24.3994 112.049 23.2889 112.502 22.3538C112.97 21.4041 113.598 20.6809 114.387 20.1841C115.191 19.6727 116.097 19.417 117.105 19.417ZM118.31 22.7045C117.507 22.7045 116.856 22.9675 116.36 23.4935C115.877 24.0195 115.636 24.7501 115.636 25.6852C115.636 26.6203 115.877 27.3508 116.36 27.8768C116.856 28.4028 117.507 28.6658 118.31 28.6658C119.099 28.6658 119.742 28.3955 120.239 27.8549C120.75 27.3143 121.006 26.5911 121.006 25.6852C121.006 24.7647 120.75 24.0414 120.239 23.5154C119.742 22.9748 119.099 22.7045 118.31 22.7045ZM131.542 19.417C133.091 19.417 134.325 19.8042 135.246 20.5786C136.181 21.353 136.766 22.3757 136.999 23.6469H133.493C133.39 23.1501 133.157 22.7629 132.791 22.4853C132.441 22.1931 131.995 22.047 131.454 22.047C131.031 22.047 130.709 22.142 130.49 22.3319C130.271 22.5072 130.161 22.7629 130.161 23.099C130.161 23.4789 130.359 23.7638 130.753 23.9537C131.162 24.1437 131.798 24.3336 132.66 24.5236C133.595 24.7427 134.362 24.9692 134.961 25.203C135.56 25.4222 136.079 25.7874 136.517 26.2988C136.955 26.8102 137.175 27.4969 137.175 28.359C137.175 29.0603 136.985 29.6813 136.605 30.2219C136.225 30.7625 135.677 31.1863 134.961 31.4931C134.245 31.7999 133.398 31.9533 132.419 31.9533C130.768 31.9533 129.445 31.5881 128.452 30.8575C127.458 30.127 126.852 29.0823 126.633 27.7234H130.249C130.307 28.2494 130.527 28.6512 130.906 28.9288C131.301 29.2064 131.805 29.3453 132.419 29.3453C132.842 29.3453 133.164 29.2503 133.383 29.0603C133.602 28.8558 133.712 28.5928 133.712 28.2713C133.712 27.8476 133.507 27.5481 133.098 27.3728C132.704 27.1828 132.053 26.9856 131.148 26.781C130.242 26.5911 129.496 26.3865 128.912 26.1673C128.328 25.9482 127.824 25.5975 127.4 25.1153C126.976 24.6186 126.764 23.9464 126.764 23.099C126.764 22.0032 127.181 21.1192 128.013 20.4471C128.846 19.7603 130.022 19.417 131.542 19.417ZM143.48 19.417C145.029 19.417 146.263 19.8042 147.184 20.5786C148.119 21.353 148.703 22.3757 148.937 23.6469H145.43C145.328 23.1501 145.094 22.7629 144.729 22.4853C144.378 22.1931 143.933 22.047 143.392 22.047C142.968 22.047 142.647 22.142 142.428 22.3319C142.209 22.5072 142.099 22.7629 142.099 23.099C142.099 23.4789 142.296 23.7638 142.691 23.9537C143.1 24.1437 143.736 24.3336 144.598 24.5236C145.533 24.7427 146.3 24.9692 146.899 25.203C147.498 25.4222 148.017 25.7874 148.455 26.2988C148.893 26.8102 149.112 27.4969 149.112 28.359C149.112 29.0603 148.922 29.6813 148.543 30.2219C148.163 30.7625 147.615 31.1863 146.899 31.4931C146.183 31.7999 145.335 31.9533 144.356 31.9533C142.705 31.9533 141.383 31.5881 140.39 30.8575C139.396 30.127 138.79 29.0823 138.57 27.7234H142.187C142.245 28.2494 142.464 28.6512 142.844 28.9288C143.239 29.2064 143.743 29.3453 144.356 29.3453C144.78 29.3453 145.102 29.2503 145.321 29.0603C145.54 28.8558 145.65 28.5928 145.65 28.2713C145.65 27.8476 145.445 27.5481 145.036 27.3728C144.641 27.1828 143.991 26.9856 143.085 26.781C142.179 26.5911 141.434 26.3865 140.85 26.1673C140.265 25.9482 139.761 25.5975 139.338 25.1153C138.914 24.6186 138.702 23.9464 138.702 23.099C138.702 22.0032 139.118 21.1192 139.951 20.4471C140.784 19.7603 141.96 19.417 143.48 19.417Z" fill="#063852"/>
<ellipse cx="18.247" cy="24" rx="18.247" ry="18" fill="#FFB700"/>
<path opacity="0.36" d="M7.00635 18.1501L9.93891 15.7393L13.849 16.2215L18.2478 19.5965L26.068 15.2572L29.4893 17.6679L29.0005 31.1679L18.2478 33.5786L7.00635 30.6858V18.1501Z" fill="white"/>
<path d="M27.3657 14.986C27.3657 14.986 27.1607 14.8523 27.1007 14.8341C27.0138 14.8077 26.7414 14.775 26.7414 14.775C23.4651 14.737 20.3455 16.1563 18.248 18.6394C16.1505 16.1563 13.0309 14.737 9.7546 14.775C9.7546 14.775 9.48303 14.7561 9.39536 14.775C9.33409 14.7882 9.1302 14.9269 9.1302 14.9269L6.56421 17.1544C6.36311 17.3276 6.25555 17.5836 6.2734 17.8463V31.2113C6.2734 31.6773 6.65638 32.055 7.12873 32.055C14.1082 32.055 17.6717 34.819 17.7092 34.8394C17.8339 34.9077 18.0677 35.0327 18.3885 35.0326C18.5966 35.0325 18.8314 34.8854 18.9635 34.7981C19.8912 34.1857 23.3569 32.1899 29.2903 32.1899C29.7628 32.1899 30.1457 31.8121 30.1457 31.3462V17.8462C30.1454 17.6038 30.0395 17.3734 29.855 17.2134L27.3657 14.986ZM25.946 16.4625V28.1738C23.3094 28.3869 20.8581 29.5959 19.1034 31.5488V20.3185C20.6778 18.0806 23.1923 16.6638 25.946 16.4625ZM10.5501 16.4625C13.3011 16.645 15.8189 18.0513 17.3927 20.2847V31.5488C15.6379 29.5959 13.1866 28.3869 10.5501 28.1738V16.4625ZM7.98406 18.226L8.83939 17.4835V28.9839C8.83939 29.4499 9.22237 29.8276 9.69472 29.8276C11.5917 29.8134 13.4373 30.4353 14.9293 31.591C12.6908 30.8391 10.3482 30.4322 7.98406 30.3844V18.226ZM28.512 30.3844C26.1479 30.4322 23.8052 30.8391 21.5667 31.5909C23.0587 30.4351 24.9044 29.8133 26.8013 29.8275C27.2737 29.8275 27.6567 29.4498 27.6567 28.9838V17.4835L28.512 18.226V30.3844Z" fill="white"/>
</svg>
